{"title":"Madonna - Celebration (Album Version Video Edit)","uid":8126321,"size":265786709,"categoryP":"video","categoryS":"music_videos","magnet":"?xt=urn:btih:bc7f2d7be0a2274bf0080cbf9514c6fc633adb87&amp;dn=Madonna+-+Celebration+%28Album+Version+Video+Edit%29&amp;tr=udp%3A%2F%2Ftracker.openbittorrent.com%3A80&amp;tr=udp%3A%2F%2Fopen.demonii.com%3A1337&amp;tr=udp%3A%2F%2Ftracker.coppersurfer.tk%3A6969&amp;tr=udp%3A%2F%2Fexodus.desync.com%3A6969","seeders":1,"leechers":0,"uploader":"dalib0r","files":1,"time":1360507844,"description":"Madonna's music video Celebration, edited for original album version of song.\n &lt;a href=&quot;\nhttp://bayimg.com/aAJmgaAEh&quot; rel=&quot;nofollow&quot; target=&quot;_NEW&quot;&gt;\nhttp://bayimg.com/aAJmgaAEh&lt;/a&gt; &lt;a href=&quot;\nhttp://bayimg.com/AaJmhAAeh&quot; rel=&quot;nofollow&quot; target=&quot;_NEW&quot;&gt;\nhttp://bayimg.com/AaJmhAAeh&lt;/a&gt;\n\nGeneral\nFormat                           : MPEG-4\nFormat profile                   : Base Media\nCodec ID                         : isom\nFile size                        : 253 MiB\nDuration                         : 3mn 24s\nOverall bit rate                 : 10.4 Mbps\n\nVideo\nID                               : 1\nFormat                           : AVC\nFormat/Info                      : Advanced Video Codec\nFormat profile                   : &lt;a class=&quot;__cf_email__&quot; href=&quot;/cdn-cgi/l/email-protection&quot; data-cfemail=&quot;571a363e39171b637967&quot;&gt;[email&amp;#160;protected]&lt;/a&gt;&lt;script cf-hash='f9e31' type=&quot;text/javascript&quot;&gt;\n/* &lt;![CDATA[ */!function(){try{var t=&quot;currentScript&quot;in document?document.currentScript:function(){for(var t=document.getElementsByTagName(&quot;script&quot;),e=t.length;e--;)if(t[e].getAttribute(&quot;cf-hash&quot;))return t[e]}();if(t&amp;&amp;t.previousSibling){var e,r,n,i,c=t.previousSibling,a=c.getAttribute(&quot;data-cfemail&quot;);if(a){for(e=&quot;&quot;,r=parseInt(a.substr(0,2),16),n=2;a.length-n;n+=2)i=parseInt(a.substr(n,2),16)^r,e+=String.fromCharCode(i);e=document.createTextNode(e),c.parentNode.replaceChild(e,c)}}}catch(u){}}();/* ]]&gt; */&lt;/script&gt;\nFormat settings, CABAC           : Yes\nFormat settings, ReFrames        : 2 frames\nFormat settings, GOP             : M=3, N=42\nCodec ID                         : avc1\nCodec ID/Info                    : Advanced Video Coding\nDuration                         : 3mn 24s\nBit rate                         : 9 999 Kbps\nWidth                            : 1 920 pixels\nHeight                           : 1 080 pixels\nDisplay aspect ratio             : 16:9\nFrame rate mode                  : Constant\nFrame rate                       : 25.000 fps\nColor space                      : YUV\nChroma subsampling               : 4:2:0\nBit depth                        : 8 bits\nScan type                        : Progressive\nBits/(Pixel*Frame)               : 0.193\nStream size                      : 250 MiB (99%)\nWriting library                  : x264 core 100\n\n\nAudio\nID                               : 2\nFormat                           : AAC\nFormat/Info                      : Advanced Audio Codec\nFormat profile                   : LC\nCodec ID                         : 40\nDuration                         : 3mn 24s\nBit rate mode                    : Variable\nBit rate                         : 128 Kbps\nChannel(s)                       : 2 channels\nChannel positions                : Front: L R\nSampling rate                    : 48.0 KHz\nCompression mode                 : Lossy\nStream size                      : 3.12 MiB (1%)\n\n","torrent":{"xt":"urn:btih:bc7f2d7be0a2274bf0080cbf9514c6fc633adb87","amp;dn":"Madonna+-+Celebration+%28Album+Version+Video+Edit%29","amp;tr":["udp%3A%2F%2Ftracker.openbittorrent.com%3A80","udp%3A%2F%2Fopen.demonii.com%3A1337","udp%3A%2F%2Ftracker.coppersurfer.tk%3A6969","udp%3A%2F%2Fexodus.desync.com%3A6969"],"infoHash":"bc7f2d7be0a2274bf0080cbf9514c6fc633adb87","infoHashBuffer":{"type":"Buffer","data":[188,127,45,123,224,162,39,75,240,8,12,191,149,20,198,252,99,58,219,135]},"announce":[],"urlList":[]}}